<svg width="289" height="181" viewBox="0 0 289 181" fill="none" xmlns="http://www.w3.org/2000/svg">
<foreignObject x="-17.1772" y="-17.1762" width="323.089" height="214.364"><div xmlns="http://www.w3.org/1999/xhtml" style="backdrop-filter:blur(8.91px);clip-path:url(#bgblur_0_2365_4557_clip_path);height:100%;width:100%"></div></foreignObject><path data-figma-bg-blur-radius="17.8237" d="M277.729 0.647461C277.729 6.19003 282.081 10.7158 287.555 10.9932L288.088 11.0068V169.005C282.367 169.005 277.729 173.643 277.729 179.364H11.0059C11.0059 173.822 6.65319 169.296 1.17969 169.019L0.646484 169.005V11.0068C6.18895 11.0068 10.7147 6.65417 10.9922 1.18066L11.0059 0.647461H277.729Z" fill="url(#paint0_linear_2365_4557)"/>
<rect x="4.53125" y="4.53223" width="279.672" height="170.947" stroke="#B4B4B4" stroke-width="2.58984"/>
<path d="M277.729 0.647461L278.376 0.64746V8.9407e-07H277.729V0.647461ZM287.555 10.9932L287.522 11.6398L287.53 11.6402L287.538 11.6404L287.555 10.9932ZM288.088 11.0068H288.735V10.3758L288.104 10.3596L288.088 11.0068ZM288.088 169.005V169.652H288.735V169.005H288.088ZM277.729 179.364V180.012H278.376V179.364H277.729ZM11.0059 179.364H10.3584V180.012H11.0059V179.364ZM1.17969 169.019L1.21247 168.372L1.20438 168.372L1.19628 168.371L1.17969 169.019ZM0.646484 169.005H-0.000975668V169.636L0.629888 169.652L0.646484 169.005ZM0.646484 11.0068L0.646483 10.3594L-0.000975668 10.3594V11.0068H0.646484ZM10.9922 1.18066L11.6388 1.21345L11.6392 1.20536L11.6394 1.19726L10.9922 1.18066ZM11.0059 0.647461V8.9407e-07H10.3748L10.3586 0.630865L11.0059 0.647461ZM277.729 0.647461L277.081 0.647462C277.081 6.53663 281.706 11.345 287.522 11.6398L287.555 10.9932L287.587 10.3465C282.456 10.0865 278.376 5.84343 278.376 0.64746L277.729 0.647461ZM287.555 10.9932L287.538 11.6404L288.071 11.6541L288.088 11.0068L288.104 10.3596L287.571 10.3459L287.555 10.9932ZM288.088 11.0068H287.44V169.005H288.088H288.735V11.0068H288.088ZM288.088 169.005V168.357C282.009 168.357 277.081 173.285 277.081 179.364H277.729H278.376C278.376 174.001 282.724 169.652 288.088 169.652V169.005ZM277.729 179.364V178.717H11.0059V179.364V180.012H277.729V179.364ZM11.0059 179.364H11.6533C11.6533 173.475 7.02859 168.667 1.21247 168.372L1.17969 169.019L1.1469 169.665C6.27779 169.925 10.3584 174.168 10.3584 179.364H11.0059ZM1.17969 169.019L1.19628 168.371L0.66308 168.358L0.646484 169.005L0.629888 169.652L1.16309 169.666L1.17969 169.019ZM0.646484 169.005H1.29394V11.0068H0.646484H-0.000975668V169.005H0.646484ZM0.646484 11.0068L0.646486 11.6543C6.53557 11.6543 11.3439 7.02957 11.6388 1.21345L10.9922 1.18066L10.3456 1.14788C10.0854 6.27876 5.84234 10.3594 0.646483 10.3594L0.646484 11.0068ZM10.9922 1.18066L11.6394 1.19726L11.6531 0.664057L11.0059 0.647461L10.3586 0.630865L10.3449 1.16407L10.9922 1.18066ZM11.0059 0.647461V1.29492H277.729V0.647461V8.9407e-07H11.0059V0.647461Z" fill="#B4B4B4"/>
<g filter="url(#filter1_d_2365_4557)">
<path d="M104.916 108.326H185.123V110.161C185.123 114.683 181.468 118.354 176.953 118.376H113.119C108.593 118.376 104.916 114.694 104.916 110.161V108.326ZM146.791 122.853H143.248L140.901 126.905C140.868 126.972 140.834 127.005 140.834 127.028L136.621 134.325H153.407L149.227 127.028L146.791 122.842V122.853ZM182.72 53.686C181.2 52.1415 179.121 51.2685 176.953 51.2685H156.145L173.154 80.7373C173.411 81.1178 173.556 81.5767 173.567 82.0356V94.1566C173.567 94.5596 173.467 94.9513 173.254 95.2982C173.165 95.4885 173.031 95.6452 172.874 95.7795C172.45 96.272 171.835 96.5406 171.198 96.5406H118.036C117.444 96.5406 116.885 96.3055 116.46 95.8914C116.047 95.4661 115.812 94.9065 115.812 94.3133C115.812 93.7202 116.036 93.1494 116.449 92.7241C116.874 92.2988 117.433 92.0637 118.025 92.0525H163.23L159.721 90.0268C159.385 89.8365 159.095 89.5679 158.894 89.2321L138.688 54.2008V54.1673L137.012 51.2797H113.13C108.593 51.2909 104.916 54.9619 104.916 59.4947V103.849H185.123V59.4947C185.123 57.3122 184.251 55.2305 182.709 53.686H182.72ZM169.097 85.9193L165.297 88.1017L169.097 90.2954V85.9193ZM161.654 85.0687L168.281 81.2298L151.015 51.2797H148.199L143.673 53.8763L161.665 85.0687H161.654ZM137.861 43.8258L140.141 47.7878C140.208 47.8773 140.264 47.9668 140.298 48.0676L141.438 50.0038L146.344 47.1834C146.422 47.1274 146.5 47.0715 146.601 47.0267L148.053 46.1985L144.477 39.9869C143.974 39.1027 143.147 38.4647 142.164 38.2073C141.181 37.9499 140.141 38.073 139.258 38.5879C138.375 39.0915 137.738 39.9309 137.47 40.9046C137.224 41.8559 137.336 42.8632 137.783 43.725L137.85 43.8258H137.861Z" fill="url(#paint1_linear_2365_4557)"/>
</g>
<defs>
<clipPath id="bgblur_0_2365_4557_clip_path" transform="translate(17.1772 17.1762)"><path d="M277.729 0.647461C277.729 6.19003 282.081 10.7158 287.555 10.9932L288.088 11.0068V169.005C282.367 169.005 277.729 173.643 277.729 179.364H11.0059C11.0059 173.822 6.65319 169.296 1.17969 169.019L0.646484 169.005V11.0068C6.18895 11.0068 10.7147 6.65417 10.9922 1.18066L11.0059 0.647461H277.729Z"/>
</clipPath><filter id="filter1_d_2365_4557" x="104.916" y="38.0771" width="84.663" height="102.486" filterUnits="userSpaceOnUse" color-interpolation-filters="sRGB">
<feFlood flood-opacity="0" result="BackgroundImageFix"/>
<feColorMatrix in="SourceAlpha" type="matrix" values="0 0 0 0 0 0 0 0 0 0 0 0 0 0 0 0 0 0 127 0" result="hardAlpha"/>
<feOffset dx="4.45592" dy="6.23829"/>
<feComposite in2="hardAlpha" operator="out"/>
<feColorMatrix type="matrix" values="0 0 0 0 0 0 0 0 0 0 0 0 0 0 0 0 0 0 0.15 0"/>
<feBlend mode="normal" in2="BackgroundImageFix" result="effect1_dropShadow_2365_4557"/>
<feBlend mode="normal" in="SourceGraphic" in2="effect1_dropShadow_2365_4557" result="shape"/>
</filter>
<linearGradient id="paint0_linear_2365_4557" x1="144.367" y1="0.647461" x2="144.367" y2="179.364" gradientUnits="userSpaceOnUse">
<stop stop-color="#192F50"/>
<stop offset="1" stop-color="#0E1B2F"/>
</linearGradient>
<linearGradient id="paint1_linear_2365_4557" x1="145.017" y1="-6.03653" x2="145.017" y2="169.704" gradientUnits="userSpaceOnUse">
<stop stop-color="#3AF9FF"/>
<stop offset="1" stop-color="#00A7AD"/>
</linearGradient>
</defs>
</svg>
